<?xml version="1.0" ?><!DOCTYPE svg  PUBLIC '-//W3C//DTD SVG 1.1//EN'  'http://www.w3.org/Graphics/SVG/1.1/DTD/svg11.dtd'><svg enable-background="new 0 0 512 512" height="512px" id="Layer_1" version="1.1" viewBox="0 0 512 512" width="512px" xml:space="preserve" xmlns="http://www.w3.org/2000/svg" xmlns:xlink="http://www.w3.org/1999/xlink"><g id="Color-Hexagon"><g id="Xing_1_"><path d="M448.013,415.413c23.132-13.354,42.058-46.136,42.058-72.846v-86.245L139.265,458.859l74.692,43.124    c23.132,13.354,60.982,13.354,84.114,0L448.013,415.413z" fill="#005452"/><path d="M490.069,169.431c0-13.254-4.664-28-12.184-41.128L34.491,384.297    c7.608,13.078,18.048,24.49,29.526,31.116l75.484,43.582l350.57-202.401v-87.163H490.069z" fill="#005F5E"/><path d="M448.013,96.587l-74.784-43.178L21.959,256.216v86.353c0,13.458,4.808,28.454,12.534,41.734    l443.393-255.994C470.251,114.979,459.667,103.315,448.013,96.587z" fill="#006B68"/><path d="M373.463,53.545l-75.392-43.528c-21.604-12.474-56.04-13.288-79.34-2.462L59.449,99.517    c-21.004,14.776-37.49,44.986-37.49,69.914v87.055L373.463,53.545z" fill="#007771"/><path d="M448.013,402.845l-149.941,86.569c-23.132,13.354-60.982,13.354-84.114,0L64.015,402.845    C40.883,389.491,21.957,356.709,21.957,330v12.57c0,26.71,18.926,59.49,42.058,72.846l149.941,86.569    c23.132,13.354,60.982,13.354,84.114,0l149.943-86.572c23.132-13.354,42.058-46.136,42.058-72.846V330    C490.069,356.709,471.145,389.489,448.013,402.845z" fill="#004743"/><path d="M201.474,169.703h-59.702l35.276,62.348l-47.034,77.706h59.7l47.034-77.704L201.474,169.703z     M322.688,119.999l-94.081,165.367l60.618,106.633h63.332l-60.624-106.633l94.081-165.367H322.688L322.688,119.999z" fill="#FFFFFF"/></g></g></svg>